<?xml version="1.0" standalone="no"?>
<!DOCTYPE svg PUBLIC "-//W3C//DTD SVG 20010904//EN"
 "http://www.w3.org/TR/2001/REC-SVG-20010904/DTD/svg10.dtd">
<svg version="1.0" xmlns="http://www.w3.org/2000/svg"
 width="920.000000pt" height="922.000000pt" viewBox="0 0 920.000000 922.000000"
 preserveAspectRatio="xMidYMid meet">
<metadata>
Created by potrace 1.16, written by Peter Selinger 2001-2019
</metadata>
<g transform="translate(0.000000,922.000000) scale(0.100000,-0.100000)"
fill="#000000" stroke="none">
<path d="M4170 9204 c-527 -65 -840 -142 -1260 -307 -582 -230 -1101 -571
-1550 -1017 -614 -612 -1011 -1308 -1225 -2145 -50 -194 -100 -462 -115 -615
-29 -290 -21 -836 15 -1117 115 -871 500 -1725 1088 -2409 111 -128 355 -371
482 -480 109 -92 317 -249 440 -331 519 -345 1183 -610 1775 -707 337 -56 393
-60 775 -61 320 0 380 3 540 23 330 43 569 94 870 187 341 105 902 380 1200
588 459 320 913 775 1195 1197 457 681 739 1478 790 2225 19 294 8 730 -26
995 -48 382 -157 780 -320 1175 -361 873 -1048 1661 -1889 2168 -530 320
-1225 554 -1835 618 -104 10 -882 21 -950 13z m622 -2473 c196 -50 369 -189
458 -369 62 -123 74 -309 67 -1022 -6 -600 -8 -617 -82 -759 -183 -347 -665
-467 -1003 -248 -121 78 -186 155 -266 314 l-46 93 0 749 0 750 48 93 c26 51
67 119 92 152 85 113 229 206 376 246 96 26 256 26 356 1z m-1172 -1999 c26
-18 63 -85 114 -206 81 -191 264 -389 441 -479 150 -76 284 -102 472 -94 159
7 227 24 372 94 105 50 121 62 220 161 118 117 182 207 230 322 62 147 76 172
103 196 79 65 198 21 225 -85 7 -28 -24 -142 -68 -248 -79 -189 -303 -444
-483 -550 -106 -63 -268 -128 -386 -155 -47 -11 -90 -22 -96 -23 -8 -3 -14
-161 -19 -565 l-8 -562 -39 -29 c-70 -50 -137 -48 -203 6 l-30 24 -7 458 c-4
252 -9 505 -10 562 l-3 104 -81 18 c-100 21 -275 87 -359 134 -273 152 -482
408 -575 703 -32 101 -33 103 -16 146 9 24 25 51 35 60 42 38 122 42 171 8z"/>
<path d="M4494 6451 c-97 -25 -205 -119 -252 -219 l-27 -57 -3 -683 -3 -683
37 -70 c47 -89 112 -153 194 -193 61 -29 72 -31 175 -31 103 0 114 2 176 31
78 37 167 122 200 192 17 34 25 74 30 152 10 141 10 724 0 1040 -8 232 -10
260 -31 307 -30 69 -138 173 -206 198 -54 19 -238 30 -290 16z"/>
</g>
</svg>
